<svg xmlns="http://www.w3.org/2000/svg" xmlns:xlink="http://www.w3.org/1999/xlink" width="500" zoomAndPan="magnify" viewBox="0 0 375 374.999991" height="500" preserveAspectRatio="xMidYMid meet" version="1.0"><defs><g/></defs><g fill="#222222" fill-opacity="1"><g transform="translate(66.871385, 237.522794)"><g><path d="M 151.453125 -11.21875 C 151.453125 -8.769531 152.265625 -6.59375 153.890625 -4.6875 C 155.523438 -2.789062 157.5 -1.632812 159.8125 -1.21875 L 159.8125 0 L 112.46875 0 L 112.46875 -1.21875 C 114.78125 -1.632812 116.75 -2.789062 118.375 -4.6875 C 120.007812 -6.59375 120.828125 -8.769531 120.828125 -11.21875 L 120.828125 -71.4375 C 120.828125 -74.976562 121.710938 -77.769531 123.484375 -79.8125 C 125.253906 -81.851562 127.023438 -83.789062 128.796875 -85.625 C 130.566406 -87.457031 131.453125 -89.597656 131.453125 -92.046875 C 131.453125 -94.359375 130.125 -96.128906 127.46875 -97.359375 C 124.8125 -98.585938 121.507812 -99.203125 117.5625 -99.203125 C 111.71875 -99.203125 106.515625 -98.210938 101.953125 -96.234375 C 97.390625 -94.265625 94.5 -92.800781 93.28125 -91.84375 C 96.269531 -87.625 97.765625 -81.773438 97.765625 -74.296875 L 97.765625 -11.21875 C 97.765625 -8.769531 98.582031 -6.59375 100.21875 -4.6875 C 101.851562 -2.789062 103.828125 -1.632812 106.140625 -1.21875 L 106.140625 0 L 58.78125 0 L 58.78125 -1.21875 C 61.09375 -1.632812 63.066406 -2.789062 64.703125 -4.6875 C 66.335938 -6.59375 67.15625 -8.769531 67.15625 -11.21875 L 67.15625 -71.4375 C 67.15625 -74.976562 68.035156 -77.769531 69.796875 -79.8125 C 71.566406 -81.851562 73.335938 -83.789062 75.109375 -85.625 C 76.878906 -87.457031 77.765625 -89.597656 77.765625 -92.046875 C 77.765625 -94.359375 76.472656 -96.128906 73.890625 -97.359375 C 71.304688 -98.585938 67.972656 -99.203125 63.890625 -99.203125 C 57.628906 -99.203125 51.03125 -97.632812 44.09375 -94.5 L 44.09375 -11.21875 C 44.09375 -8.769531 44.90625 -6.59375 46.53125 -4.6875 C 48.164062 -2.789062 50.140625 -1.632812 52.453125 -1.21875 L 52.453125 0 L 5.109375 0 L 5.109375 -1.21875 C 7.421875 -1.632812 9.390625 -2.789062 11.015625 -4.6875 C 12.648438 -6.59375 13.46875 -8.769531 13.46875 -11.21875 L 13.46875 -83.890625 C 13.46875 -86.472656 12.648438 -88.679688 11.015625 -90.515625 C 9.390625 -92.359375 7.421875 -93.484375 5.109375 -93.890625 L 5.109375 -95.109375 L 40 -100.21875 C 40.132812 -100.21875 40.234375 -100.21875 40.296875 -100.21875 C 40.367188 -100.21875 40.476562 -100.21875 40.625 -100.21875 C 42.9375 -100.21875 44.09375 -99.0625 44.09375 -96.75 L 44.09375 -95.9375 C 47.625 -97.695312 51.632812 -99.15625 56.125 -100.3125 C 60.613281 -101.476562 65.171875 -102.128906 69.796875 -102.265625 C 74.429688 -102.398438 78.753906 -101.75 82.765625 -100.3125 C 86.773438 -98.882812 90.078125 -96.40625 92.671875 -92.875 C 97.566406 -96.132812 102.867188 -98.515625 108.578125 -100.015625 C 114.296875 -101.515625 119.398438 -102.265625 123.890625 -102.265625 C 128.796875 -102.265625 133.320312 -101.378906 137.46875 -99.609375 C 141.613281 -97.835938 144.976562 -94.941406 147.5625 -90.921875 C 150.15625 -86.910156 151.453125 -81.367188 151.453125 -74.296875 Z M 151.453125 -11.21875 "/></g></g></g><g fill="#222222" fill-opacity="1"><g transform="translate(209.945585, 237.522794)"><g><path d="M 53.6875 -101.03125 C 51.914062 -101.03125 49.769531 -99.257812 47.25 -95.71875 C 44.726562 -92.1875 42.515625 -87.457031 40.609375 -81.53125 C 38.710938 -75.613281 37.765625 -69.050781 37.765625 -61.84375 C 37.765625 -52.863281 39.257812 -44.664062 42.25 -37.25 C 45.238281 -29.832031 49.25 -23.945312 54.28125 -19.59375 C 59.320312 -15.238281 64.90625 -13.0625 71.03125 -13.0625 C 74.976562 -13.0625 78.753906 -14.015625 82.359375 -15.921875 C 85.960938 -17.828125 89.191406 -20.476562 92.046875 -23.875 L 93.078125 -23.265625 C 88.992188 -15.921875 83.476562 -10.035156 76.53125 -5.609375 C 69.59375 -1.191406 61.976562 1.015625 53.6875 1.015625 C 45.113281 1.015625 37.320312 -1.296875 30.3125 -5.921875 C 23.300781 -10.546875 17.6875 -16.769531 13.46875 -24.59375 C 9.25 -32.414062 7.140625 -41.09375 7.140625 -50.625 C 7.140625 -60.144531 9.25 -68.816406 13.46875 -76.640625 C 17.6875 -84.460938 23.300781 -90.6875 30.3125 -95.3125 C 37.320312 -99.945312 45.113281 -102.265625 53.6875 -102.265625 C 60.625 -102.265625 67.082031 -100.765625 73.0625 -97.765625 C 79.050781 -94.773438 83.882812 -91.066406 87.5625 -86.640625 C 91.238281 -82.222656 93.078125 -77.835938 93.078125 -73.484375 C 93.078125 -69.128906 91.507812 -65.421875 88.375 -62.359375 C 85.25 -59.296875 81.507812 -57.765625 77.15625 -57.765625 C 72.9375 -57.765625 69.257812 -59.296875 66.125 -62.359375 C 63 -65.421875 61.4375 -69.128906 61.4375 -73.484375 C 61.4375 -77.015625 62.179688 -79.765625 63.671875 -81.734375 C 65.171875 -83.710938 66.632812 -85.519531 68.0625 -87.15625 C 69.5 -88.789062 70.21875 -90.765625 70.21875 -93.078125 C 70.21875 -95.523438 69.195312 -97.289062 67.15625 -98.375 C 65.113281 -99.46875 62.765625 -100.179688 60.109375 -100.515625 C 57.453125 -100.859375 55.3125 -101.03125 53.6875 -101.03125 Z M 53.6875 -101.03125 "/></g></g></g></svg>